<svg width="32" height="32" viewBox="0 0 32 32" fill="none" xmlns="http://www.w3.org/2000/svg">
<g opacity="0.2" clip-path="url(#clip0_11_35)" filter="url(#filter0_d_11_35)">
<path d="M25 6H22C22 4.4087 21.3679 2.88258 20.2426 1.75736C19.1174 0.632141 17.5913 0 16 0C14.4087 0 12.8826 0.632141 11.7574 1.75736C10.6321 2.88258 10 4.4087 10 6H7C6.20435 6 5.44129 6.31607 4.87868 6.87868C4.31607 7.44129 4 8.20435 4 9V19C4.00159 20.3256 4.52888 21.5964 5.46622 22.5338C6.40356 23.4711 7.67441 23.9984 9 24H23C24.3256 23.9984 25.5964 23.4711 26.5338 22.5338C27.4711 21.5964 27.9984 20.3256 28 19V9C28 8.20435 27.6839 7.44129 27.1213 6.87868C26.5587 6.31607 25.7956 6 25 6ZM16 2C17.0609 2 18.0783 2.42143 18.8284 3.17157C19.5786 3.92172 20 4.93913 20 6H12C12 4.93913 12.4214 3.92172 13.1716 3.17157C13.9217 2.42143 14.9391 2 16 2ZM26 19C26 19.7956 25.6839 20.5587 25.1213 21.1213C24.5587 21.6839 23.7956 22 23 22H9C8.20435 22 7.44129 21.6839 6.87868 21.1213C6.31607 20.5587 6 19.7956 6 19V9C6 8.73478 6.10536 8.48043 6.29289 8.29289C6.48043 8.10536 6.73478 8 7 8H10V10C10 10.2652 10.1054 10.5196 10.2929 10.7071C10.4804 10.8946 10.7348 11 11 11C11.2652 11 11.5196 10.8946 11.7071 10.7071C11.8946 10.5196 12 10.2652 12 10V8H20V10C20 10.2652 20.1054 10.5196 20.2929 10.7071C20.4804 10.8946 20.7348 11 21 11C21.2652 11 21.5196 10.8946 21.7071 10.7071C21.8946 10.5196 22 10.2652 22 10V8H25C25.2652 8 25.5196 8.10536 25.7071 8.29289C25.8946 8.48043 26 8.73478 26 9V19Z" fill="#222222"/>
</g>
<defs>
<filter id="filter0_d_11_35" x="0" y="0" width="32" height="32" filterUnits="userSpaceOnUse" color-interpolation-filters="sRGB">
<feFlood flood-opacity="0" result="BackgroundImageFix"/>
<feColorMatrix in="SourceAlpha" type="matrix" values="0 0 0 0 0 0 0 0 0 0 0 0 0 0 0 0 0 0 127 0" result="hardAlpha"/>
<feOffset dy="4"/>
<feGaussianBlur stdDeviation="2"/>
<feComposite in2="hardAlpha" operator="out"/>
<feColorMatrix type="matrix" values="0 0 0 0 0 0 0 0 0 0 0 0 0 0 0 0 0 0 0.25 0"/>
<feBlend mode="normal" in2="BackgroundImageFix" result="effect1_dropShadow_11_35"/>
<feBlend mode="normal" in="SourceGraphic" in2="effect1_dropShadow_11_35" result="shape"/>
</filter>
<clipPath id="clip0_11_35">
<rect width="24" height="24" fill="white" transform="translate(4)"/>
</clipPath>
</defs>
</svg>
